<?xml version="1.0" encoding="utf-8"?>
<!-- Generator: Adobe Illustrator 27.3.0, SVG Export Plug-In . SVG Version: 6.00 Build 0)  -->
<svg version="1.1" id="Calque_1" xmlns="http://www.w3.org/2000/svg" xmlns:xlink="http://www.w3.org/1999/xlink" x="0px" y="0px"
	 viewBox="0 0 864 864" style="enable-background:new 0 0 864 864;" xml:space="preserve">
<style type="text/css">
	.st0{fill:#FFFFFF;}
</style>
<g>
	<path class="st0" d="M496.97,159.08h-181.2v546.84h180.43c153.09,0,254.67-114.83,254.67-278.1
		C750.87,263.76,646.96,159.08,496.97,159.08z M489.96,666.83H357.94V198.15h132.02c151.54,0,215.6,111.73,215.6,232.02
		C705.55,565.29,634.45,666.83,489.96,666.83z"/>
	<path class="st0" d="M481.79,317.45l27.9-16.08c4.73-2.71,10.45-2.36,14.7,0.52c-15.56-38.18-38.65-69.09-67.97-92.17h-88.17
		C424.83,227.82,461.33,266.29,481.79,317.45z"/>
	<path class="st0" d="M511.63,567.31l-31.68-15.86c-21.88,49.95-59.58,86.45-113.58,103.86h84.35
		c28.59-22.4,51.67-51.63,68.18-86.58c-0.34,0.04-0.69,0.04-1.03,0.04C515.84,568.77,513.69,568.3,511.63,567.31z"/>
	<path class="st0" d="M113.24,159.12v546.79h180.47c3.53,0,7.05-0.04,10.49-0.17v-39.38c-5.46,0.34-11.05,0.47-16.72,0.47H155.45
		V198.15h132.02c5.72,0,11.26,0.13,16.72,0.47v-39.38c-3.22-0.09-6.45-0.13-9.72-0.13H113.24z"/>
	<path class="st0" d="M625.08,371.71l-61.3-35.34l-34.86-20.12l-3.31-1.89l-2.36-1.42c-0.13,0-0.13-0.04-0.26-0.13
		c-0.3-0.13-0.56-0.21-0.86-0.34c-0.21-0.09-0.47-0.13-0.69-0.26c-0.3-0.09-0.56-0.17-0.77-0.22c-0.34,0-0.56-0.09-0.82-0.09
		c-0.3-0.09-0.56-0.09-0.86-0.09c-0.26,0-0.47,0-0.77,0.09c-0.26,0-0.47,0.09-0.82,0.09c-0.21,0.04-0.52,0.13-0.86,0.22
		c-0.21,0.13-0.43,0.17-0.6,0.26c-0.39,0.13-0.64,0.21-0.95,0.34c-0.04,0.09-0.13,0.13-0.17,0.13l-12.68,7.27l-18.79,10.83
		l-72.52,41.87c-0.04,0.04-0.13,0.13-0.17,0.13c-0.3,0.13-0.52,0.34-0.77,0.56c-0.21,0.13-0.43,0.26-0.56,0.47
		c-0.21,0.22-0.43,0.43-0.56,0.56c-0.21,0.3-0.43,0.52-0.56,0.64c-0.17,0.26-0.3,0.47-0.43,0.69c-0.13,0.3-0.3,0.52-0.43,0.77
		c-0.04,0.22-0.22,0.47-0.22,0.69c-0.13,0.34-0.21,0.56-0.26,0.86c-0.09,0.26-0.09,0.47-0.13,0.77c-0.09,0.26-0.09,0.56-0.09,0.9
		v0.26l0.09,19.17l0.17,84.39v0.04l0.09,14.06c0,0.21,0.09,0.34,0.09,0.47c0.04,0.3,0.04,0.64,0.04,0.9
		c0.09,0.3,0.17,0.52,0.22,0.86c0.09,0.21,0.13,0.47,0.3,0.69c0.04,0.3,0.22,0.56,0.34,0.77c0.04,0.3,0.21,0.47,0.34,0.69
		c0.13,0.3,0.34,0.52,0.47,0.73c0.17,0.17,0.34,0.39,0.52,0.56c0.13,0.26,0.39,0.39,0.6,0.6c0.21,0.21,0.34,0.34,0.56,0.52
		c0.3,0.17,0.56,0.34,0.77,0.47c0.13,0.09,0.34,0.22,0.52,0.26l69.69,34.86l18.1,9.03l14.53,7.27c0.34,0.21,0.73,0.3,1.07,0.43
		c0.26,0.04,0.39,0.21,0.69,0.21c0.69,0.21,1.38,0.34,2.02,0.34c0.09,0,0.09,0,0.09,0c0.69,0,1.38-0.21,2.06-0.34
		c0.3-0.09,0.52-0.17,0.73-0.21c0.13-0.09,0.26-0.13,0.39-0.13c0.21-0.17,0.43-0.21,0.64-0.3l7.48-3.83l29.19-14.92l65.82-33.66
		c0.09-0.04,0.21-0.13,0.34-0.26c0.3-0.17,0.47-0.3,0.77-0.52c0.21-0.13,0.43-0.34,0.64-0.47c0.17-0.13,0.39-0.34,0.6-0.56
		c0.13-0.21,0.3-0.43,0.52-0.64c0.13-0.21,0.26-0.47,0.47-0.6c0.09-0.3,0.21-0.52,0.26-0.77c0.21-0.21,0.3-0.52,0.39-0.69
		c0.13-0.3,0.17-0.56,0.26-0.86c0.09-0.21,0.13-0.47,0.22-0.77c0-0.26,0-0.56,0.09-0.82c0-0.21,0.04-0.34,0.04-0.52l0.34-116.46
		v-0.13C629.72,376.82,628.09,373.47,625.08,371.71z M567.9,358.21l31.77,18.31l-11.48,5.33c-0.34-0.64-0.73-1.12-1.16-1.63
		l-18.66-18.79l-6.84-6.84L567.9,358.21z M492.45,361.56l16.38-16.55l9.72-9.76l19.09,19.22l28.98,29.28h-96.13L492.45,361.56z
		 M474.4,355.8l-10.62,10.66l-14.87,14.96c-0.21,0.26-0.34,0.47-0.56,0.69l-6.49-3.01l-4.47-2.02L474.4,355.8z M423.54,389.68v-0.3
		l0.3,0.17l16.12,7.39l-16.21,54.12L423.54,389.68z M453.24,411.73l42.35,76.18l3.27,5.85l-4.17-0.43l-64.01-6.49L453.24,411.73z
		 M509.48,535.41l-4.9-2.54l-17.45-8.73l-36.76-18.31l0.77,0.09l39.89,4.04l18.44,1.89V535.41z M517.95,493.41l-3.87-6.92l-15-27.04
		l-32.72-58.81h103.13l-24.33,43.81L517.95,493.41z M563.77,516.11l-33.96,17.32l-3.44,1.76v-23.34l9.72-0.99l29.36-3.01l17.93-1.81
		L563.77,516.11z M568.37,490.62l-28.59,2.88l-2.71,0.26l3.83-6.84l32.07-57.86l9.63-17.33l22.53,75.1L568.37,490.62z
		 M612.09,451.07l-16.21-54.12l16.42-7.57L612.09,451.07z"/>
</g>
</svg>
